<svg xmlns="http://www.w3.org/2000/svg" viewBox="0 0 380 280" role="img" aria-label="">
  <defs><linearGradient id="mount" x1="0" y1="0" x2="1" y2="1"><stop stop-color="#26d2bc"/><stop offset="1" stop-color="#1675de"/></linearGradient><linearGradient id="peak" x1="0" y1="0" x2="1" y2="1"><stop stop-color="#9b72ff"/><stop offset="1" stop-color="#5734d2"/></linearGradient><filter id="s"><feDropShadow dx="0" dy="15" stdDeviation="14" flood-color="#02082a" flood-opacity=".45"/></filter></defs>
  <ellipse cx="198" cy="247" rx="143" ry="20" fill="#030a2b" opacity=".42"/>
  <g filter="url(#s)"><path d="M43 235 139 92l49 69 45-61 105 135Z" fill="url(#mount)"/><path d="m139 92 24 34-18-6-14 20-16-11Z" fill="#d9fbf6"/><path d="m233 100 26 34-19-7-13 19-15-13Z" fill="#e5deff"/><path d="M124 235c19-25 41-31 62-48 27-22 38-44 50-78" fill="none" stroke="#ffd35d" stroke-width="9" stroke-linecap="round" stroke-dasharray="2 17"/><circle cx="126" cy="233" r="13" fill="#ff9d25"/><circle cx="236" cy="108" r="13" fill="#7c53e6"/></g>
  <path d="M237 107V34" stroke="#f1f5ff" stroke-width="7" stroke-linecap="round"/><path d="M241 38h77l-20 20 20 20h-77Z" fill="#ff6547"/><path d="m279 51 5 10 11 2-8 8 2 11-10-5-10 5 2-11-8-8 11-2Z" fill="#fff2bb"/>
  <path d="m69 60 6 14 14 6-14 6-6 14-6-14-14-6 14-6Z" fill="#3ce1c8"/><path d="m330 115 5 11 11 5-11 5-5 11-5-11-11-5 11-5Z" fill="#ffb020"/><circle cx="99" cy="38" r="6" fill="#8c69ef"/>
</svg>
