<svg xmlns="http://www.w3.org/2000/svg" viewBox="0 0 360 270" role="img" aria-label="">
  <defs><linearGradient id="body" x1="0" y1="0" x2="1" y2="1"><stop stop-color="#a374ff"/><stop offset="1" stop-color="#5426cc"/></linearGradient><linearGradient id="glow" x1="0" y1="0" x2="1" y2="1"><stop stop-color="#4ae2d0"/><stop offset="1" stop-color="#2084ff"/></linearGradient><filter id="s"><feDropShadow dx="0" dy="16" stdDeviation="16" flood-color="#020722" flood-opacity=".45"/></filter></defs>
  <ellipse cx="190" cy="238" rx="115" ry="20" fill="#030a29" opacity=".45"/>
  <g filter="url(#s)"><rect x="86" y="58" width="190" height="154" rx="47" fill="url(#body)"/><rect x="106" y="80" width="150" height="98" rx="31" fill="#10184b"/><circle cx="153" cy="126" r="12" fill="#57e1d3"/><circle cx="209" cy="126" r="12" fill="#57e1d3"/><path d="M153 157c17 13 39 13 56 0" fill="none" stroke="#c8bdff" stroke-width="8" stroke-linecap="round"/><path d="M181 58V34M165 34h32" stroke="#8f75ff" stroke-width="10" stroke-linecap="round"/><circle cx="181" cy="25" r="14" fill="url(#glow)"/><path d="M86 112H59c-14 0-25 11-25 25v30M276 112h27c14 0 25 11 25 25v30" fill="none" stroke="#7958e9" stroke-width="14" stroke-linecap="round"/></g>
  <path d="m54 47 6 14 14 6-14 6-6 14-6-14-14-6 14-6 6-14Z" fill="#ffb21e"/><path d="m307 36 5 11 11 5-11 5-5 11-5-11-11-5 11-5 5-11Z" fill="#43ddca"/><circle cx="320" cy="105" r="7" fill="#ff5f47"/><circle cx="49" cy="202" r="6" fill="#8d6cff"/>
</svg>
